{"title":"Tortured 2008 DVDrip English Klam","uid":6173655,"size":1490014069,"categoryP":"video","categoryS":"movies","magnet":"?xt=urn:btih:403a394c91cf2f9bd3188744efb1b8d6e5416c54&amp;dn=Tortured+2008+DVDrip+English+Klam&amp;tr=udp%3A%2F%2Ftracker.openbittorrent.com%3A80&amp;tr=udp%3A%2F%2Fopen.demonii.com%3A1337&amp;tr=udp%3A%2F%2Ftracker.coppersurfer.tk%3A6969&amp;tr=udp%3A%2F%2Fexodus.desync.com%3A6969","seeders":1,"leechers":0,"uploader":"Klambake","files":-1,"time":1297684120,"description":"With: Laurence Fishburne, Cole Hauser and James Cromwell\n\nJimmy, a business-like young man, enters a room where a man, the accountant for a shadowy drug lord, is shackled. Over the next week, Jimmy systematically tortures the accountant, demanding information about missing funds. The accountant denies any knowledge. In flashbacks to six months before, we see Jimmy's joining a group of the drug lord's enforcers, surviving brutal hazing, getting his first assignment, and keeping his cool. We also learn that Jimmy has another identity, friends in high places, and a girlfriend unhappy about both his work and his changing personality. Can Jimmy hold on to his humanity as he carries out increasingly nightmarish orders? \n\nGeneral:\n\nComplete name                    : Tortured\\Tortured.avi\nFormat                           : AVI\nFormat/Info                      : Audio Video Interleave\nFile size                        : 1.39 GiB\nDuration                         : 1h 42mn\nOverall bit rate                 : 1 931 Kbps\n\nVideo:\n\nFormat                           : MPEG-4 Visual\nFormat profile                   : Simple@L3\nFormat settings, BVOP            : No\nFormat settings, QPel            : No\nFormat settings, GMC             : No warppoints\nFormat settings, Matrix          : Default (H.263)\nCodec ID                         : XVID\nCodec ID/Hint                    : XviD\nDuration                         : 1h 42mn\nBit rate                         : 1 473 Kbps\nWidth                            : 704 pixels\nHeight                           : 396 pixels\nDisplay aspect ratio             : 16:9\nFrame rate                       : 25.000 fps\nColor space                      : YUV\nChroma subsampling               : 4:2:0\nBit depth                        : 8 bits\nScan type                        : Progressive\nBits/(Pixel*Frame)               : 0.211\nStream size                      : 1.06 GiB (76%)\nWriting library                  : XviD 1.1.2 (UTC 2006-11-01)\n\nAudio:\n\nFormat                           : AC-3\nFormat/Info                      : Audio Coding 3\nMode extension                   : CM (complete main)\nCodec ID                         : 2000\nDuration                         : 1h 42mn\nBit rate mode                    : Constant\nBit rate                         : 448 Kbps\nChannel(s)                       : 6 channels\nChannel positions                : Front: L C R, Side: L R, LFE\nSampling rate                    : 48.0 KHz\nBit depth                        : 16 bits\nStream size                      : 329 MiB (23%)\nAlignment                        : Aligned on interleaves\nInterleave, duration             : 32 ms (0.80 video frame)\n","torrent":{"xt":"urn:btih:403a394c91cf2f9bd3188744efb1b8d6e5416c54","amp;dn":"Tortured+2008+DVDrip+English+Klam","amp;tr":["udp%3A%2F%2Ftracker.openbittorrent.com%3A80","udp%3A%2F%2Fopen.demonii.com%3A1337","udp%3A%2F%2Ftracker.coppersurfer.tk%3A6969","udp%3A%2F%2Fexodus.desync.com%3A6969"],"infoHash":"403a394c91cf2f9bd3188744efb1b8d6e5416c54","infoHashBuffer":{"type":"Buffer","data":[64,58,57,76,145,207,47,155,211,24,135,68,239,177,184,214,229,65,108,84]},"announce":[],"urlList":[]}}